<svg xmlns="http://www.w3.org/2000/svg" viewBox="0 0 310 100"><g id="GUIDES"><path d="M17.33,79C.11,74.48-5.88,52.2,6.73,39.59c9-9,26.88-8.55,34.76.82a19.87,19.87,0,0,1,2.77,4c.3.89,3,1.17,10.39,1.08,7.76-.1,10,.15,10,1.12,0,.69-1.16,1.81-2.58,2.5-2.28,1.12-2.56,1.75-2.43,5.44C59.79,58.89,62.72,67.81,65,71c1.19,1.62,1.56,1,4.19-7.55C70.8,58.27,72.55,52.25,73.1,50s1.52-4.2,2.14-4.41c4.17-1.4,4.35-1.18,8.12,10,2,6,4.49,12.52,5.46,14.42l1.77,3.45,1-4.11c1.79-7.17,3.09-16.89,2.5-18.75-.32-1-2.2-2.63-4.19-3.64-7.31-3.73-8.45-9.13-3.51-16.5,5.41-8.06,18.42-13.07,23.91-9.22,4.1,2.87,4.41,4.61,4.9,27.49.43,19.84.63,22,2.17,23,2.72,1.67,6.76-3.51,7.58-9.73,1.52-11.43,7.44-17,18-17,5.5,0,7.84,2,7.84,6.84,0,2.83-.52,3.92-2.46,5.19-2.34,1.53-2.51,1.53-3.74-.16a7.61,7.61,0,0,1-1.3-3.86c0-2.56-2.32-5-4.7-5-1,0-2.93,1-4.38,2.26-2.48,2.13-2.63,2.69-2.63,9.92S131.8,68,134.2,70c5.77,5,13.68,3.73,31.38-4.89,9.56-4.64,10.62-6.09,9.06-12.33-1.09-4.4-4.75-6.63-8.24-5-2.09.95-2.43,1.69-2.43,5.28,0,4.55-.89,5.67-3.76,4.76-2.59-.82-3.35-4.64-1.49-7.48,4.25-6.48,18.16-8,21.21-2.29.5.93.9,6.3.9,11.94,0,12.38.88,13.89,6.36,10.91,4.87-2.65,7.7-8.55,7.7-16v-6h-2.81c-3.89,0-3.51-1.88.93-4.62a24.64,24.64,0,0,0,6.06-5.61l2.37-3.33v9.82l4.92,0,4.92,0-2.21,1.84a9.47,9.47,0,0,1-5.47,1.84h-3.25l.31,10.82c.35,11.92.91,13.05,5.94,12,4.17-.85,8.76-3.94,10.33-7,.77-1.5,1.38-5.18,1.38-8.37,0-5.59-.05-5.7-2.85-6.26-3.91-.78-3.06-2.23,2.44-4.17,7.37-2.59,7-3.24,7,11.16,0,13.36.52,15.36,3.78,14.5,2.41-.63,4.24-3.69,6.1-10.2,4.32-15.14,9.57-18.35,25.07-15.3,8,1.57,9.33,1.6,15.24.36,3.57-.74,6.6-1.35,6.73-1.35A15.65,15.65,0,0,1,282,49v3.79l3.52-2.81c5.32-4.26,9.81-5.87,13.14-4.71,4.05,1.41,4.89,4.31,4.89,16.73,0,11.5.35,12.62,4.21,13.33a2.82,2.82,0,0,1,2.17,2c.28,1.45-.61,1.63-8.18,1.63-9,0-10.36-.8-6.63-4,1.65-1.42,1.87-2.77,1.87-11.45s-.23-10.09-1.87-11.73c-2.25-2.24-3.87-2.34-7.53-.45-3.92,2-5.59,5.9-5.59,13,0,7.33,1.05,10.44,3.78,11.16,1.14.3,1.86,1.08,1.63,1.76-.48,1.45-18.52,2.34-18.52.92,0-1.21,2-2.7,4.17-3.1s3.11-3.27,3.23-10.75-.73-11.47-2.61-12.45a28.15,28.15,0,0,0-6.1-1.45c-4.2-.61-4.52-.52-3.87,1,1.55,3.73,1.6,10.47.12,15.4-2.52,8.4-6.83,12.09-14.13,12.08-5.83,0-10.24-2.5-12.39-7-1.43-3-3.09-4.36-3.09-2.53,0,1.22-8,8.89-10.1,9.66-3.12,1.16-5.09-1.11-5.6-6.49l-.47-4.82-4.53,4.07c-5.48,4.94-9.88,7.14-14.25,7.14-3.83,0-4.41-1-4.41-7.66V66.56l-5.58,5.67c-7.67,7.79-13.18,8.8-13.92,2.54l-.3-2.53-3.69,3.33c-2.87,2.6-4.47,3.33-7.28,3.33-3.81,0-6.7-2.16-6.7-5,0-2.15-.55-2-5.91,1.42-8.93,5.74-19.85,4.57-23.68-2.53l-1.67-3.1-3.86,4c-4.68,4.83-8.92,6.59-11.42,4.76-1.56-1.14-1.76-3.37-2.18-24.56-.41-20.07-.7-23.66-2.1-25.8-1.79-2.73-6.57-4.14-10.24-3-7.6,2.31-10.86,14-5,17.89,1.21.79,5.06,1.73,8.55,2.07l6.35.64-3,2.81c-2.42,2.29-3.67,5.12-6.73,15.34-2.07,6.9-3.91,12.68-4.08,12.86a30.77,30.77,0,0,1-3.75,1.75C84.6,80.14,85,80.75,80.16,66c-1.92-5.79-3.84-10.75-4.28-11s-2.4,4.41-4.37,10.4c-3,9.06-4,11.1-6.11,12.19A12.19,12.19,0,0,1,62,78.9c-.49,0-2-3.27-3.47-7.26-6.17-17.38-9-22.72-11.86-22.72-.17,0-.36,3-.42,6.79-.16,10.34-4.13,17.52-11.85,21.46-4.13,2.11-12.58,3-17.05,1.84Zm17.88-6.7c3.43-3.17,5.08-7.44,5.08-13.18,0-10.05-4.81-18.05-12.65-21-7.27-2.77-13.93-.8-18.65,5.53-2.93,3.92-3.22,13.89-.58,20,3.64,8.45,8.78,11.66,18,11.25,5.15-.22,6.74-.69,8.79-2.59Zm221-.11c6.4-2.91,4.44-18-2.76-21.25-3.23-1.47-8.12-1.39-10.27.18-2.58,1.89-3.11,11.37-.89,16a10.5,10.5,0,0,0,13.92,5Zm-83.59-1.5c1.79-2,3-6.79,1.72-6.79A24.7,24.7,0,0,0,169.14,66c-3.2,1.55-4.24,2.58-4.24,4.21,0,1.82.49,2.16,3.13,2.16a6.53,6.53,0,0,0,4.56-1.64Zm46-35.13-2.93-3,2.84-3.17,2.85-3.17,3.2,3.2,3.2,3.21-3.11,3-3.11,3-2.94-3Z"/></g></svg>